<?xml version="1.0" standalone="no"?>
<!DOCTYPE svg PUBLIC "-//W3C//DTD SVG 20010904//EN"
 "http://www.w3.org/TR/2001/REC-SVG-20010904/DTD/svg10.dtd">
<svg version="1.0" xmlns="http://www.w3.org/2000/svg"
 width="512.000000pt" height="512.000000pt" viewBox="0 0 512.000000 512.000000"
 preserveAspectRatio="xMidYMid meet">

<g transform="translate(0.000000,512.000000) scale(0.100000,-0.100000)"
fill="#000000" stroke="none">
<path d="M2393 4785 c-201 -36 -365 -124 -513 -274 -129 -130 -211 -275 -257
-457 -16 -63 -18 -137 -18 -854 0 -717 2 -791 18 -854 94 -366 373 -642 727
-719 l100 -22 0 -107 0 -108 -55 0 c-31 0 -71 -6 -90 -14 -60 -26 -65 -48 -65
-301 l0 -225 -280 0 c-184 0 -287 -4 -304 -11 -51 -24 -58 -56 -54 -266 l3
-193 28 -27 27 -28 900 0 900 0 27 28 28 27 3 201 3 200 -34 34 -35 35 -286 0
-286 0 0 225 c0 253 -5 275 -65 301 -19 8 -59 14 -90 14 l-55 0 0 110 c0 101
2 110 19 110 47 0 218 53 292 90 105 53 154 87 234 162 158 147 264 351 295
564 8 55 10 303 8 824 -4 813 -2 781 -64 939 -74 186 -236 377 -402 474 -201
118 -440 162 -659 122z m347 -221 c189 -45 369 -184 473 -364 24 -42 66 -157
81 -222 l6 -28 -160 0 c-181 0 -219 -9 -244 -59 -20 -38 -20 -64 0 -102 25
-50 63 -59 249 -59 l165 0 0 -104 0 -105 -185 -3 c-184 -3 -185 -3 -211 -29
-15 -16 -28 -41 -31 -66 -5 -35 -1 -45 25 -74 l30 -34 184 -5 183 -5 0 -105 0
-105 -180 -5 c-99 -3 -187 -9 -196 -13 -9 -5 -24 -23 -34 -41 -23 -42 -14 -94
21 -127 25 -23 31 -24 210 -27 l184 -3 0 -105 0 -104 -165 0 c-186 0 -224 -9
-249 -59 -20 -38 -20 -64 -1 -101 25 -49 46 -55 231 -60 l172 -5 -19 -73 c-66
-260 -280 -472 -544 -538 -94 -23 -257 -23 -350 0 -199 51 -373 184 -478 366
-24 42 -66 157 -81 223 l-6 27 160 0 c181 0 219 9 244 59 20 38 20 64 0 102
-25 50 -63 59 -249 59 l-165 0 0 104 0 105 185 3 c184 3 185 3 211 29 15 16
28 41 31 66 5 35 1 45 -25 74 l-30 34 -184 5 -183 5 0 105 0 105 183 5 184 5
30 34 c26 29 30 39 25 74 -3 25 -16 50 -31 66 -26 26 -27 26 -211 29 l-185 3
0 105 0 104 165 0 c186 0 224 9 249 59 20 38 20 64 0 102 -25 50 -63 59 -244
59 -88 0 -160 2 -160 4 0 2 12 44 26 92 83 290 328 497 634 537 56 8 189 -2
260 -19z m-70 -3625 l0 -231 34 -34 34 -34 287 0 286 0 -3 -52 -3 -53 -745 0
-745 0 -3 53 -3 52 286 0 287 0 34 34 34 34 0 231 0 231 110 0 110 0 0 -231z"/>
<path d="M1004 4072 c-71 -45 -219 -247 -290 -396 -100 -212 -129 -346 -129
-596 0 -250 33 -402 130 -605 71 -148 218 -347 287 -389 72 -44 158 3 158 87
0 41 -6 51 -65 117 -145 162 -235 338 -281 550 -14 63 -19 126 -19 245 1 142
4 172 28 268 52 198 127 344 259 498 68 80 78 96 78 130 0 81 -89 132 -156 91z"/>
<path d="M4024 4080 c-36 -14 -64 -59 -64 -102 0 -32 8 -47 43 -86 152 -165
237 -321 294 -540 25 -96 27 -124 27 -272 0 -133 -4 -183 -21 -256 -41 -176
-123 -346 -228 -474 -27 -34 -65 -79 -82 -102 -44 -54 -46 -107 -4 -149 23
-22 38 -29 68 -29 53 1 75 16 145 96 157 182 261 391 315 637 23 104 25 424 4
532 -46 232 -160 469 -311 644 -88 102 -129 124 -186 101z"/>
<path d="M1313 3775 c-45 -19 -154 -162 -208 -270 -68 -137 -97 -261 -97 -420
0 -134 12 -217 52 -329 42 -124 144 -284 225 -354 64 -57 149 -36 175 42 14
44 -1 79 -71 161 -192 227 -224 574 -76 837 19 34 61 92 91 127 31 36 57 74
58 85 5 67 -17 109 -64 125 -39 14 -46 13 -85 -4z"/>
<path d="M3730 3783 c-8 -3 -27 -17 -42 -31 -22 -20 -28 -35 -28 -67 0 -37 8
-52 60 -116 76 -92 143 -224 165 -324 26 -115 17 -293 -19 -400 -33 -96 -88
-193 -151 -263 -25 -28 -50 -64 -54 -79 -19 -68 30 -133 101 -133 31 0 47 8
84 42 102 94 206 281 245 444 28 112 30 311 6 421 -35 153 -102 291 -202 415
-69 85 -114 110 -165 91z"/>
</g>
</svg>
